<svg xmlns="http://www.w3.org/2000/svg" width="518" height="120" fill="none" viewBox="0 0 518 120"><path fill="#FA776C" d="M0 27.662c0-7.773 8.48-12.574 15.145-8.575L40.29 34.174A20 20 0 0 1 50 51.324v17.352a20 20 0 0 1-9.71 17.15l-25.145 15.087C8.48 104.912 0 100.111 0 92.338z"/><path fill="#624CF5" d="M103.855 0c5.296 0 7.995 6.362 4.314 10.17L94.896 23.9a20 20 0 0 1-14.38 6.1H55.54a20 20 0 0 1-10.29-2.85L18.575 11.145C13.357 8.014 15.577 0 21.662 0zm0 120c5.296 0 7.995-6.362 4.314-10.17L94.896 96.1a20 20 0 0 0-14.38-6.1H55.54a20 20 0 0 0-10.29 2.85l-26.675 16.005C13.357 111.986 15.577 120 21.662 120z"/><rect width="30" height="30" x="56" y="45" fill="#FA776C" rx="15"/><path fill="#000" d="M164.272 52.872h32.352v12.096h-32.352zm1.152 27.648H202V93h-52.032V25.8h50.784v12.48h-35.328zM226.866 93l-21.697-51.648h15.457L238.674 85.8h-7.68l18.72-44.448h14.4L242.322 93zm67.584.768q-8.832 0-15.552-3.456-6.624-3.456-10.272-9.408-3.648-6.048-3.648-13.728 0-7.776 3.552-13.728 3.648-6.048 9.888-9.408 6.24-3.456 14.112-3.456 7.584 0 13.632 3.264 6.144 3.168 9.696 9.216 3.552 5.952 3.552 14.304 0 .864-.096 2.016a225 225 0 0 1-.192 2.016H277.17v-8.736h34.08l-5.76 2.592q0-4.032-1.632-7.008t-4.512-4.608q-2.88-1.728-6.72-1.728t-6.816 1.728q-2.88 1.632-4.512 4.704-1.632 2.976-1.632 7.104v2.304q0 4.224 1.824 7.488 1.92 3.168 5.28 4.896 3.456 1.632 8.064 1.632 4.128 0 7.2-1.248 3.168-1.248 5.76-3.744l7.968 8.64q-3.552 4.032-8.928 6.24-5.376 2.112-12.384 2.112m66.323-53.184q6.144 0 10.944 2.496 4.896 2.4 7.68 7.488 2.784 4.992 2.784 12.864V93h-14.976V65.736q0-6.24-2.784-9.216-2.688-2.976-7.68-2.976-3.552 0-6.432 1.536-2.784 1.44-4.416 4.512-1.536 3.072-1.536 7.872V93h-14.976V41.352h14.304v14.304l-2.688-4.32q2.784-5.184 7.968-7.968t11.808-2.784m56.103 53.184q-9.12 0-14.208-4.608-5.088-4.704-5.088-13.92V29.928h14.976v45.12q0 3.264 1.728 5.088 1.728 1.728 4.704 1.728 3.552 0 6.048-1.92l4.032 10.56Q426.764 92.136 423.5 93q-3.168.768-6.624.768m-27.264-39.744v-11.52h35.808v11.52zM437.475 93V21.768h14.976V93zm35.403 19.392q-4.032 0-7.968-1.248t-6.433-3.456l5.473-10.656a13 13 0 0 0 3.936 2.4q2.304.864 4.512.864 3.168 0 4.992-1.536 1.92-1.44 3.456-4.896l2.688-6.336 1.152-1.632 18.528-44.544h14.4l-23.328 54.816q-2.496 6.24-5.76 9.792-3.168 3.552-7.104 4.992-3.84 1.44-8.544 1.44m8.832-17.376-23.041-53.664h15.457l17.856 43.2z"/></svg>