<svg xmlns="http://www.w3.org/2000/svg" width="24" height="24" fill="none" viewBox="0 0 24 24"><path fill="#757575" d="M17.5 15.71q0 1.963-1.173 3.381-1.173 1.419-3.048 1.752v2.246a.42.42 0 0 1-.106.296.35.35 0 0 1-.27.115H11.31a.35.35 0 0 1-.265-.122.4.4 0 0 1-.112-.289v-2.246a7 7 0 0 1-1.503-.398 7.6 7.6 0 0 1-1.197-.57 8 8 0 0 1-.872-.617 7 7 0 0 1-.548-.481 3 3 0 0 1-.207-.231q-.2-.27-.023-.526l1.214-1.733q.083-.129.271-.154a.28.28 0 0 1 .283.115l.024.026q1.332 1.27 2.865 1.604.435.103.872.103.955 0 1.68-.552t.725-1.566q0-.36-.177-.68a2.4 2.4 0 0 0-.395-.539q-.217-.219-.69-.481a15 15 0 0 0-.777-.411 24 24 0 0 0-.944-.417l-.725-.321q-.264-.115-.725-.34a8 8 0 0 1-.736-.398 12 12 0 0 1-.667-.456q-.39-.282-.63-.545a8 8 0 0 1-.513-.63 3.2 3.2 0 0 1-.419-.743 5.5 5.5 0 0 1-.247-.854 5 5 0 0 1-.1-1.001A4.6 4.6 0 0 1 7.927 4.94q1.155-1.335 3.006-1.72V.911q0-.167.112-.29A.35.35 0 0 1 11.31.5h1.592q.165 0 .271.116a.42.42 0 0 1 .106.295V3.17q.672.077 1.303.295t1.026.43.748.481q.355.27.46.372.106.104.177.18.2.231.059.488l-.955 1.874q-.094.192-.271.205-.165.039-.318-.09a3 3 0 0 0-.171-.154 6 6 0 0 0-.46-.34 5 5 0 0 0-1.568-.744 3.6 3.6 0 0 0-1.008-.148q-1.12 0-1.828.552-.707.552-.707 1.425 0 .333.1.616.1.282.348.532t.466.424.66.398.713.346.825.353q.625.257.956.405.33.147.896.449a7 7 0 0 1 .89.545q.324.245.73.642.408.398.625.815.219.417.372.982.153.564.153 1.206"/></svg>