<svg xmlns="http://www.w3.org/2000/svg" width="120" height="120" fill="none" viewBox="0 0 120 120"><path fill="#E9E9E9" d="M1 27.662c0-7.773 8.48-12.574 15.145-8.575L41.29 34.174A20 20 0 0 1 51 51.324v17.352a20 20 0 0 1-9.71 17.15l-25.145 15.087C9.48 104.912 1 100.111 1 92.338zM104.855 0c5.296 0 7.995 6.362 4.314 10.17L95.896 23.9a20 20 0 0 1-14.38 6.1H56.54a20 20 0 0 1-10.29-2.85L19.575 11.145C14.357 8.014 16.577 0 22.662 0zm0 120c5.296 0 7.995-6.362 4.314-10.17L95.896 96.1a20 20 0 0 0-14.38-6.1H56.54a20 20 0 0 0-10.29 2.85l-26.675 16.005C14.357 111.986 16.577 120 22.662 120z"/><rect width="30" height="30" x="57" y="45" fill="#E9E9E9" rx="15"/></svg>