<svg xmlns="http://www.w3.org/2000/svg" width="74" height="74" fill="none" viewBox="0 0 74 74"><path fill="#AFAFAF" d="M67.526 37c0-.339-.185-.678-.277-1.017a13 13 0 0 0-.555-1.758c-.154-.37-.37-.74-.555-1.14a12 12 0 0 0-.74-1.357c-.278-.432-.648-.648-.648-.894 0-.247-.616-.771-.956-1.141s-.647-.617-.986-.925l-1.141-1.018-1.11-.74a11 11 0 0 0-1.357-.709L58 25.746a13 13 0 0 0-1.542-.462 9 9 0 0 0-1.264-.278l-.71-.339a18.5 18.5 0 0 0-34.964 0l-.555.154q-.642.095-1.264.278-.785.182-1.542.462l-1.203.555a11 11 0 0 0-1.356.71l-1.11.924-1.141.956c-.34.309-.678.586-.987.925s-.647.771-.956 1.141a9 9 0 0 0-.801 1.11c-.247.4-.494.894-.74 1.357-.247.462-.401.77-.555 1.14q-.34.86-.555 1.758c0 .34-.216.678-.278 1.017a16 16 0 0 0-.308 2.93c.014.941.107 1.88.277 2.805 0 .309.155.586.216.895q.23.908.555 1.788l.37.894q.408.893.925 1.727l.432.678q.067.131.154.247l.154.216A15.42 15.42 0 0 0 21.585 55.5h9.25v-4.224c-.937.544-2 .83-3.084.833a6.32 6.32 0 0 1-4.44-1.881 6.167 6.167 0 0 1 .154-8.726l9.25-8.942a6.17 6.17 0 0 1 4.286-1.726 6.17 6.17 0 0 1 4.348 1.819l9.25 9.25a6.167 6.167 0 0 1-4.348 10.514 5.9 5.9 0 0 1-3.083-.833V55.5h9.25a15.42 15.42 0 0 0 12.333-6.166l.154-.155q.088-.116.155-.246l.431-.678a15 15 0 0 0 .925-1.727l.37-.894q.327-.88.555-1.789c0-.308.155-.585.216-.894.174-.946.267-1.905.278-2.867A16 16 0 0 0 67.526 37"/><path fill="#AFAFAF" d="M39.192 34.811a3.083 3.083 0 0 0-4.317 0l-9.25 8.942a3.086 3.086 0 0 0-.264 4.511 3.083 3.083 0 0 0 4.519-.071l4.039-3.916v17.39a3.084 3.084 0 0 0 6.167 0V44.43l3.977 4.008a3.08 3.08 0 0 0 4.378 0 3.08 3.08 0 0 0 0-4.378z"/></svg>